<?xml version="1.0" encoding="UTF-8"?>
<!DOCTYPE svg PUBLIC "-//W3C//DTD SVG 1.1//EN" "http://www.w3.org/Graphics/SVG/1.1/DTD/svg11.dtd">
<!-- Creator: CorelDRAW X5 -->
<svg xmlns="http://www.w3.org/2000/svg" xml:space="preserve" width="90mm" height="60mm" style="shape-rendering:geometricPrecision; text-rendering:geometricPrecision; image-rendering:optimizeQuality; fill-rule:evenodd; clip-rule:evenodd"
viewBox="0 0 90000 60000"
 xmlns:xlink="http://www.w3.org/1999/xlink">
 <defs>
  <style type="text/css">
   <![CDATA[
    .fil0 {fill:#FEFEFE}
   ]]>
  </style>
 </defs>
 <g id="Слой_x0020_1">
  <metadata id="CorelCorpID_0Corel-Layer"/>
  <g id="_504883688">
   <path class="fil0" d="M41800 55287c4350,3124 2535,1766 6265,339 -941,3482 -4621,3666 -6265,-339zm-758 -520l-1821 413 -323 -251 -307 -1974 -29 355 2480 1458zm10382 -1288l-444 1658 -290 142 -1791 -221 2526 -1579zm551 -606l1979 -1447 -174 -188c393,1846 -201,2326 -1805,1635zm-16314 -1151l2169 1222 -340 384 -1829 -1605zm-59 -5174l-217 1416 -1233 -1485 297 -743 3641 662 -811 -2074 2891 1370 -735 -3237c255,41 2925,4262 3194,4734 1090,1910 602,4136 -1812,4462 508,-1050 479,-3921 -902,-3965 -878,-28 -3498,-1093 -4315,-1138zm145 8082l1770 -215 -304 621 3307 1732 302 -578c945,1173 1382,3635 4031,3670 3038,40 3169,-2460 4202,-3669 818,-186 931,708 2054,269 1334,-522 648,-1356 1201,-2169 982,12 1386,1039 2403,-141 976,-1132 -101,-1716 162,-2418 610,-79 1884,-53 2283,-487l-226 -2384 1685 -361c1774,-3512 -2966,-4426 -3442,-4896 -810,-801 -1309,-1845 -961,-2805 309,-854 684,-3133 750,-3250l-54 210 5096 1317c39,-474 -670,-1268 -945,-1685l-66 177 3039 1223 -1198 -1222 3665 1248 201 -519 -709 -299 3392 -709 5877 -1720 -132 -484 -1677 -206 3494 -952 -98 -331 -1768 12 4818 -1815 -225 -659 -1908 -46 4260 -1575 -170 -414 -1619 34 2697 -2096 -1426 381 4250 -3151 -354 -514 -1604 517 2449 -2178 -988 310 2200 -2767 -313 -247 -1802 882 2792 -3329 -3001 677c415,-705 5638,-1520 4846,-4991l-2457 1525 3879 -4383 -546 -523 -2946 1974c121,-690 4551,-3113 2960,-6227 -809,487 -917,1430 -1640,2255 -658,751 -1848,1459 -2170,1895 -1315,1780 -2204,7210 -9113,14932 -2501,2796 -5624,5419 -9003,7084 -2249,1109 -9799,4061 -11958,3579 575,-1094 1237,-1002 1783,-2928 709,-2503 -818,-1415 1627,-3103 1972,-1361 3979,-2808 5940,-4221 1450,-1045 12174,-7745 12275,-7876 -843,-435 -9561,4151 -10984,5103 -3604,2411 -6214,5642 -8931,7494l-1231 -2003c3179,-3252 13979,-8223 18350,-10511 2332,-1221 6624,-4191 8154,-6239 1108,-1483 1834,-2978 2863,-4418 896,-1254 3555,-2846 2106,-4354 -518,-15 -4371,6861 -5404,7999 -2434,2681 -4592,4225 -7679,6037 -2111,1239 -6926,3478 -9272,4444 -2721,1120 -6476,4409 -9217,3785 280,-1397 1527,-1183 421,-3672 -811,-1823 1605,-1585 -987,-3095l305 -44 -649 -2452c-3065,-324 -1726,3422 -2898,5318 -1141,1845 -3993,221 -6546,224 -2351,3 -5828,1524 -6633,-303 -1048,-2377 213,-5282 -2850,-5278 -1126,1702 -309,1356 -651,2308 -311,865 -1136,322 -636,2075 559,1958 -367,434 -417,2536 -33,1366 615,1705 688,2563 -2285,519 -6953,-2908 -9239,-3969 -6274,-2914 -12124,-5248 -16704,-10390 -1583,-1777 -4939,-8027 -5384,-8332 -1450,1837 705,2650 1840,4256 1074,1519 1521,2999 2785,4497 6633,7859 19664,10426 26532,16817l1938 -2610c-424,1898 -2820,4950 395,8235 394,403 2105,1574 2090,1687 -2976,946 -4726,-4118 -4466,-6790l-1031 1655c-3086,-2344 -4949,-4832 -8772,-7402 -1368,-920 -10134,-5615 -11062,-5256 -32,95 11695,7585 12836,8394 1921,1362 4406,2925 6189,4331 1215,959 269,1981 1042,3492 482,941 2203,2332 2236,2711 -1457,1245 -10018,-1905 -11772,-2810 -3757,-1938 -6568,-4452 -9522,-7411 -2459,-2464 -5465,-6520 -7241,-9523 -1067,-1803 -5187,-10084 -6217,-10716 -1309,2828 620,3917 1679,5544l-1500 -954c-730,2079 2262,3395 3178,4186l-2350 -1097c-895,2286 3160,4258 4919,4682l-47 237c-642,-128 -2696,-710 -3194,-512l2952 3209 -1759 -879 -301 302 2212 2690 -1091 -108 2161 1793 -1402 -463 -367 523 4522 3252 182 -309 -1804 261 2757 1729 -1414 134 -117 490 4087 1336 -1935 97 -226 658 4935 1558 -1738 279 -54 490 3407 786 -1811 185 -101 369c2930,967 2937,1054 5901,1658l43 -270c97,264 -1242,848 973,1122 1506,186 1591,-290 2687,-421l-1149 771 96 404 3638 -1140 -904 1502 2949 -1399 -797 1393 5012 -1491c-207,2175 1453,4317 -538,6132 -602,549 -5057,919 -3282,4739 790,659 1601,-199 1455,976 -105,847 -515,1603 561,2051 1285,535 1858,-403 1522,867 -268,1016 -73,1627 806,2276zm-25414 -25562l-226 113 226 -113zm-1185 -2201l-226 113 226 -113zm4036 -10527l0 169 0 -169zm63668 0l0 169 0 -169zm6802 7310l-226 113 226 -113zm-2540 3217l-226 113 226 -113zm-47558 22581l1685 813 -248 323 -1437 -1136zm21437 1157l1051 -1502 290 341 -1341 1161zm-13362 -7002l6563 452 -3 -607c13,1922 -5104,2334 -6560,155zm11013 -199l798 2094 -429 61 -369 -2155zm-16078 2199l84 -2460 415 87 -499 2373zm12978 -116l2652 -1072c-175,536 -752,1833 -622,2318l2407 -1159c858,456 1381,581 1537,1058l-1297 1293c-866,-1641 -141,-957 -2015,-821 -1585,115 -1577,687 -3254,457l-296 4058c-1961,181 -2583,-2587 -1716,-4399 1003,-2096 2177,-2117 2820,-4802l291 49 -506 3020zm1315 -3586c1371,1075 1129,2883 -577,2845l378 26 199 -2871zm-11806 3052l-1179 -947 -200 -265 1116 -1951 -45 199 308 2964zm-9980 -7812l-113 226 113 -226zm-5927 -339l-113 226 113 -226zm43688 -169l-113 226 113 -226zm-27404 -310c2162,518 3123,1534 5789,1583 2857,52 4230,-1639 5557,-1752 -1496,1399 -3308,2716 -5587,2723 -1573,5 -4895,-1321 -5758,-2554zm13547 -12023c3064,1168 4131,9004 -2352,10134 3810,-3144 5724,-5039 2352,-10134zm-35588 8777l-113 226 113 -226zm26321 -1328l1391 -1382 557 -29 596 4236 -422 79 -2122 -2905zm34159 -2707c0,-567 0,567 0,0zm-36465 -648c1243,1674 -2247,1118 0,0zm6154 479c-60,-713 857,-680 883,200 33,1111 -861,62 -883,-200zm-35419 -28l-113 226 113 -226zm38975 -2173c-254,2958 -3635,881 0,0zm-13039 339c14,-959 1785,158 1739,688 -96,1098 -1751,113 -1739,-688zm8128 2539c1856,-2532 462,2068 3802,84 1902,-1130 1310,-4864 2496,-3185 1360,1925 -2447,7174 -6298,3101zm-4220 -1056l1358 1036c-2730,4137 -8049,-499 -6081,-3504 1378,838 -457,1686 1627,3391 1983,1622 2491,446 3096,-923zm39583 -4390l-113 226 113 -226zm-44873 0l-113 226 113 -226zm-28279 0l-113 226 113 -226zm74337 -1863l-113 226 113 -226zm-75353 0l-113 226 113 -226zm75551 -2004c0,-567 0,568 0,0zm-75889 -28l-113 226 113 -226zm30553 1871l-2077 -2181c97,1098 354,2126 1259,2805 1527,1144 907,1250 1916,2317 1336,1412 4670,1660 5122,3345 -569,-153 -2896,-1325 -4214,-1747 -788,-252 -1283,-563 -1873,-1162 -1322,-1342 -212,-963 -284,-1859 -1797,-1608 -3444,-4876 -1066,-6423l-330 107 1546 4799zm16259 -4773c703,263 940,2336 774,3564 -317,2350 -1861,1778 -2064,3153 -353,2386 -4004,2772 -6378,4341 509,-2101 3529,-1937 4897,-3400 1317,-1409 34,-798 2050,-2183 985,-677 1253,-1785 1350,-2883l124 141 -2154 2041 1401 -4773zm31250 -3533l-113 226 113 -226zm28 -2681c118,-118 904,156 287,86l-86 -23c-19,-6 -440,176 -201,-63zm-82155 -536l-113 226 113 -226z"/>
   <path class="fil0" d="M77698 16002c164,164 535,-218 195,-91 -2,1 -464,-178 -195,91zm-169 0c-17,17 50,27 51,51 0,131 -7,-95 -51,-51zm-678 339l0 169 677 -258c-765,-119 -335,-127 -677,89z"/>
   <path class="fil0" d="M11997 16002c164,164 535,-218 195,-91 -2,1 -464,-178 -195,91zm339 169l51 -50c-3,3 -67,34 -51,50zm847 339l0 -169 -650 -188 650 357z"/>
  </g>
 </g>
</svg>
