<svg width="164" height="42" viewBox="0 0 164 42" fill="none" xmlns="http://www.w3.org/2000/svg">
<path d="M89.9556 32.6862V33.9332H85.1117V32.6862H89.9556ZM85.5002 28.8763V38H83.9274V28.8763H85.5002ZM91.165 28.8763V38H89.5984V28.8763H91.165ZM104.485 33.1875V33.6888C104.485 34.3781 104.395 34.9964 104.215 35.5436C104.035 36.0909 103.779 36.5567 103.444 36.941C103.114 37.3253 102.717 37.6198 102.254 37.8245C101.79 38.0251 101.276 38.1253 100.712 38.1253C100.152 38.1253 99.6407 38.0251 99.177 37.8245C98.7175 37.6198 98.3185 37.3253 97.9802 36.941C97.6418 36.5567 97.3786 36.0909 97.1906 35.5436C97.0068 34.9964 96.9149 34.3781 96.9149 33.6888V33.1875C96.9149 32.4982 97.0068 31.882 97.1906 31.3389C97.3744 30.7917 97.6334 30.3259 97.9676 29.9416C98.306 29.5531 98.705 29.2585 99.1645 29.058C99.6282 28.8533 100.14 28.751 100.7 28.751C101.264 28.751 101.778 28.8533 102.241 29.058C102.705 29.2585 103.104 29.5531 103.438 29.9416C103.772 30.3259 104.029 30.7917 104.209 31.3389C104.393 31.882 104.485 32.4982 104.485 33.1875ZM102.912 33.6888V33.175C102.912 32.6653 102.862 32.2162 102.761 31.8277C102.665 31.435 102.521 31.1071 102.329 30.8439C102.141 30.5766 101.909 30.376 101.633 30.2423C101.358 30.1045 101.046 30.0356 100.7 30.0356C100.353 30.0356 100.044 30.1045 99.7723 30.2423C99.5008 30.376 99.2689 30.5766 99.0768 30.8439C98.8888 31.1071 98.7446 31.435 98.6444 31.8277C98.5441 32.2162 98.494 32.6653 98.494 33.175V33.6888C98.494 34.1985 98.5441 34.6496 98.6444 35.0423C98.7446 35.435 98.8909 35.7671 99.083 36.0387C99.2794 36.306 99.5133 36.5086 99.7848 36.6465C100.056 36.7802 100.366 36.847 100.712 36.847C101.063 36.847 101.374 36.7802 101.646 36.6465C101.917 36.5086 102.147 36.306 102.335 36.0387C102.523 35.7671 102.665 35.435 102.761 35.0423C102.862 34.6496 102.912 34.1985 102.912 33.6888ZM115.028 35.6501C115.028 35.4622 114.999 35.2951 114.94 35.1488C114.886 35.0026 114.788 34.869 114.646 34.7478C114.504 34.6267 114.303 34.5097 114.044 34.3969C113.79 34.2799 113.464 34.1609 113.067 34.0397C112.632 33.906 112.231 33.7577 111.864 33.5948C111.5 33.4277 111.183 33.2355 110.911 33.0183C110.64 32.7969 110.429 32.5442 110.278 32.2601C110.128 31.9718 110.053 31.6397 110.053 31.2638C110.053 30.892 110.13 30.5536 110.285 30.2486C110.443 29.9437 110.667 29.6805 110.955 29.4591C111.248 29.2335 111.592 29.0601 111.989 28.939C112.386 28.8136 112.825 28.751 113.305 28.751C113.982 28.751 114.564 28.8763 115.053 29.127C115.546 29.3776 115.924 29.7139 116.187 30.1358C116.455 30.5578 116.588 31.0235 116.588 31.5332H115.028C115.028 31.2324 114.963 30.9671 114.834 30.7374C114.709 30.5034 114.516 30.3196 114.257 30.186C114.003 30.0523 113.679 29.9854 113.286 29.9854C112.914 29.9854 112.605 30.0418 112.359 30.1546C112.112 30.2674 111.928 30.4199 111.807 30.6121C111.686 30.8042 111.626 31.0215 111.626 31.2638C111.626 31.435 111.665 31.5917 111.745 31.7337C111.824 31.8716 111.945 32.0011 112.108 32.1222C112.271 32.2392 112.476 32.3499 112.722 32.4543C112.969 32.5588 113.259 32.659 113.593 32.7551C114.099 32.9055 114.539 33.0726 114.915 33.2564C115.291 33.4361 115.605 33.6408 115.855 33.8705C116.106 34.1003 116.294 34.3614 116.419 34.6538C116.545 34.9421 116.607 35.27 116.607 35.6376C116.607 36.0219 116.53 36.3687 116.375 36.6778C116.221 36.9828 115.999 37.2439 115.711 37.4611C115.427 37.6742 115.085 37.8392 114.684 37.9561C114.287 38.0689 113.844 38.1253 113.355 38.1253C112.916 38.1253 112.484 38.0668 112.058 37.9499C111.636 37.8329 111.252 37.6554 110.905 37.4172C110.558 37.1749 110.283 36.8742 110.078 36.5149C109.873 36.1514 109.771 35.7274 109.771 35.2428H111.344C111.344 35.5394 111.394 35.7922 111.494 36.0011C111.598 36.2099 111.743 36.3812 111.926 36.5149C112.11 36.6444 112.323 36.7405 112.566 36.8031C112.812 36.8658 113.075 36.8971 113.355 36.8971C113.723 36.8971 114.03 36.8449 114.276 36.7405C114.527 36.636 114.715 36.4898 114.84 36.3018C114.966 36.1139 115.028 35.8966 115.028 35.6501ZM125.923 28.8763V38H124.362V28.8763H125.923ZM128.786 28.8763V30.1296H121.524V28.8763H128.786ZM135.84 28.8763V38H134.267V28.8763H135.84ZM149.203 28.8763V38H147.63L143.538 31.4643V38H141.966V28.8763H143.538L147.643 35.4246V28.8763H149.203ZM162.253 33.3379V36.8219C162.124 36.9932 161.921 37.1812 161.646 37.3859C161.374 37.5864 161.013 37.7598 160.561 37.906C160.11 38.0522 159.548 38.1253 158.876 38.1253C158.304 38.1253 157.779 38.0292 157.303 37.8371C156.827 37.6407 156.415 37.3546 156.069 36.9786C155.726 36.6026 155.461 36.1452 155.273 35.6063C155.085 35.0632 154.991 34.4449 154.991 33.7515V33.1186C154.991 32.4293 155.076 31.8152 155.248 31.2763C155.423 30.7332 155.674 30.2737 156 29.8977C156.325 29.5217 156.718 29.2377 157.178 29.0455C157.641 28.8491 158.166 28.751 158.751 28.751C159.498 28.751 160.117 28.8763 160.605 29.127C161.098 29.3734 161.478 29.716 161.746 30.1546C162.013 30.5933 162.182 31.0946 162.253 31.6585H160.712C160.662 31.341 160.564 31.057 160.417 30.8063C160.275 30.5557 160.071 30.3593 159.803 30.2173C159.54 30.0711 159.198 29.998 158.776 29.998C158.412 29.998 158.093 30.0669 157.817 30.2048C157.541 30.3426 157.311 30.5452 157.128 30.8126C156.948 31.0799 156.812 31.4058 156.72 31.7901C156.628 32.1745 156.582 32.6131 156.582 33.106V33.7515C156.582 34.2528 156.635 34.6977 156.739 35.0862C156.848 35.4747 157.002 35.8026 157.203 36.07C157.407 36.3373 157.656 36.54 157.948 36.6778C158.241 36.8115 158.571 36.8783 158.938 36.8783C159.298 36.8783 159.592 36.8491 159.822 36.7906C160.052 36.7279 160.234 36.6548 160.367 36.5713C160.505 36.4836 160.612 36.4 160.687 36.3206V34.5097H158.788V33.3379H162.253Z" fill="black"/>
<rect y="24" width="18" height="18" fill="#D12053"/>
<rect x="20" y="16" width="18" height="26" fill="#B3C735"/>
<rect x="40" y="12" width="18" height="30" fill="#00829B"/>
<rect x="60" width="18" height="42" fill="#794795"/>
<path d="M9.68091 35.2616V28.8763H11.2475V35.2616C11.2475 35.8674 11.118 36.3833 10.859 36.8094C10.6 37.2355 10.247 37.5614 9.79997 37.7869C9.35297 38.0125 8.8454 38.1253 8.27726 38.1253C7.69659 38.1253 7.18066 38.0272 6.72949 37.8308C6.2825 37.6345 5.93159 37.3337 5.67676 36.9285C5.42193 36.5232 5.29451 36.0094 5.29451 35.387H6.87362C6.87362 35.7462 6.93001 36.0366 7.04281 36.258C7.15978 36.4752 7.3227 36.634 7.53158 36.7342C7.74463 36.8303 7.99319 36.8783 8.27726 36.8783C8.5488 36.8783 8.78901 36.8178 8.99788 36.6966C9.21094 36.5713 9.37804 36.3896 9.49919 36.1514C9.62033 35.9092 9.68091 35.6125 9.68091 35.2616Z" fill="white"/>
<path d="M31.047 28.8763H32.6135V34.9734C32.6135 35.6669 32.4631 36.2475 32.1624 36.7154C31.8616 37.1833 31.4522 37.5363 30.9342 37.7744C30.4203 38.0084 29.8459 38.1253 29.2109 38.1253C28.5551 38.1253 27.9702 38.0084 27.4564 37.7744C26.9425 37.5363 26.5373 37.1833 26.2407 36.7154C25.9483 36.2475 25.8021 35.6669 25.8021 34.9734V28.8763H27.3687V34.9734C27.3687 35.412 27.4438 35.7734 27.5942 36.0575C27.7446 36.3373 27.9577 36.5441 28.2334 36.6778C28.5091 36.8115 28.835 36.8783 29.2109 36.8783C29.5869 36.8783 29.9107 36.8115 30.1822 36.6778C30.4579 36.5441 30.671 36.3373 30.8214 36.0575C30.9718 35.7734 31.047 35.412 31.047 34.9734V28.8763Z" fill="white"/>
<path d="M50.7274 35.6501C50.7274 35.4622 50.6981 35.2951 50.6396 35.1488C50.5853 35.0026 50.4872 34.869 50.3451 34.7478C50.2031 34.6267 50.0026 34.5097 49.7436 34.3969C49.4887 34.2799 49.1629 34.1609 48.766 34.0397C48.3316 33.906 47.9305 33.7577 47.5629 33.5948C47.1995 33.4277 46.882 33.2355 46.6104 33.0183C46.3389 32.7969 46.1279 32.5442 45.9775 32.2601C45.8271 31.9718 45.752 31.6397 45.752 31.2638C45.752 30.892 45.8292 30.5536 45.9838 30.2486C46.1426 29.9437 46.366 29.6805 46.6543 29.4591C46.9467 29.2335 47.2914 29.0601 47.6882 28.939C48.0851 28.8136 48.5237 28.751 49.0042 28.751C49.6809 28.751 50.2637 28.8763 50.7524 29.127C51.2454 29.3776 51.6235 29.7139 51.8866 30.1358C52.154 30.5578 52.2877 31.0235 52.2877 31.5332H50.7274C50.7274 31.2324 50.6626 30.9671 50.5331 30.7374C50.4078 30.5034 50.2156 30.3196 49.9566 30.186C49.7018 30.0523 49.378 29.9854 48.9854 29.9854C48.6136 29.9854 48.3044 30.0418 48.0579 30.1546C47.8115 30.2674 47.6277 30.4199 47.5065 30.6121C47.3854 30.8042 47.3248 31.0215 47.3248 31.2638C47.3248 31.435 47.3645 31.5917 47.4438 31.7337C47.5232 31.8716 47.6444 32.0011 47.8073 32.1222C47.9702 32.2392 48.1749 32.3499 48.4214 32.4543C48.6679 32.5588 48.9582 32.659 49.2924 32.7551C49.7979 32.9055 50.2386 33.0726 50.6146 33.2564C50.9906 33.4361 51.3039 33.6408 51.5545 33.8705C51.8052 34.1003 51.9932 34.3614 52.1185 34.6538C52.2438 34.9421 52.3065 35.27 52.3065 35.6376C52.3065 36.0219 52.2292 36.3687 52.0746 36.6778C51.9201 36.9828 51.6986 37.2439 51.4104 37.4611C51.1263 37.6742 50.7838 37.8392 50.3827 37.9561C49.9859 38.0689 49.5431 38.1253 49.0543 38.1253C48.6156 38.1253 48.1833 38.0668 47.7572 37.9499C47.3352 37.8329 46.9509 37.6554 46.6042 37.4172C46.2574 37.1749 45.9817 36.8742 45.777 36.5149C45.5723 36.1514 45.47 35.7274 45.47 35.2428H47.0428C47.0428 35.5394 47.0929 35.7922 47.1932 36.0011C47.2976 36.2099 47.4418 36.3812 47.6256 36.5149C47.8094 36.6444 48.0224 36.7405 48.2647 36.8031C48.5112 36.8658 48.7744 36.8971 49.0543 36.8971C49.4219 36.8971 49.7289 36.8449 49.9754 36.7405C50.2261 36.636 50.4141 36.4898 50.5394 36.3018C50.6647 36.1139 50.7274 35.8966 50.7274 35.6501Z" fill="white"/>
<path d="M69.6809 28.8763V38H68.1206V28.8763H69.6809ZM72.5446 28.8763V30.1296H65.282V28.8763H72.5446Z" fill="white"/>
</svg>
