<?xml version="1.0"?>
<svg xmlns="http://www.w3.org/2000/svg" id="Layer_1" data-name="Layer 1" viewBox="0 0 512 512" width="512" height="512"><title>Server Link</title><circle cx="325.5" cy="104.578" r="11"/><circle cx="325.5" cy="224.578" r="11"/><circle cx="383.5" cy="224.578" r="11"/><circle cx="383.5" cy="104.578" r="11"/><path d="M91,149h34.349c.824-3,3.04-4,5.651-4H381c2.611,0,4.827,1,5.651,4H421c2.206,0,4-2.217,4-4.422v-80c0-2.206-1.794-3.578-4-3.578H91c-2.206,0-4,1.372-4,3.578v80C87,146.783,88.794,149,91,149ZM383.5,81.578a23,23,0,1,1-23,23A23.026,23.026,0,0,1,383.5,81.578Zm-58,0a23,23,0,1,1-23,23A23.026,23.026,0,0,1,325.5,81.578Zm-114.5,18a6,6,0,1,1,12,0v20a6,6,0,0,1-12,0Zm-26,0a6,6,0,1,1,12,0v20a6,6,0,0,1-12,0Zm-27,0a6,6,0,1,1,12,0v20a6,6,0,0,1-12,0Zm-26,0a6,6,0,0,1,12,0v20a6,6,0,0,1-12,0Zm-27,0a6,6,0,0,1,12,0v20a6,6,0,0,1-12,0Z"/><rect x="137" y="157" width="238" height="15"/><path d="M91,269H421c2.206,0,4-2.217,4-4.422v-80c0-2.206-1.794-3.578-4-3.578H386.191c-1.038,1-2.971,3-5.191,3H131c-2.22,0-4.153-2-5.191-3H91c-2.206,0-4,1.372-4,3.578v80C87,266.783,88.794,269,91,269Zm292.5-67.422a23,23,0,1,1-23,23A23.026,23.026,0,0,1,383.5,201.578Zm-58,0a23,23,0,1,1-23,23A23.026,23.026,0,0,1,325.5,201.578Zm-114.5,18a6,6,0,1,1,12,0v20a6,6,0,0,1-12,0Zm-26,0a6,6,0,1,1,12,0v20a6,6,0,0,1-12,0Zm-27,0a6,6,0,1,1,12,0v20a6,6,0,0,1-12,0Zm-26,0a6,6,0,1,1,12,0v20a6,6,0,0,1-12,0Zm-27,0a6,6,0,1,1,12,0v20a6,6,0,0,1-12,0Z"/><rect x="250" y="275" width="12" height="136"/><circle cx="256" cy="434.167" r="17.256"/><path d="M292,275v55.291A5.641,5.641,0,0,0,297.86,336H327v36h12V330.291A6.477,6.477,0,0,0,332.744,324H304V275Z"/><path d="M315.488,395.407a17.256,17.256,0,1,0,17.256-17.256A17.276,17.276,0,0,0,315.488,395.407Z"/><path d="M185,336h29.14a5.641,5.641,0,0,0,5.86-5.709V275H208v49H179.256A6.477,6.477,0,0,0,173,330.291V349h12Z"/><path d="M162,372.151A17.256,17.256,0,1,0,179.256,354.9,17.276,17.276,0,0,0,162,372.151Z"/></svg>
